# xmcd CD database file generated by OrangeCD 6.4
#
# Track frame offsets:
#	150
#	12620
#	42186
#	63565
#	82264
#	121645
#	174154
#	218701
#	297508
#
# Disc length: 4768 seconds
#
# Revision: 2
# Processed by: cddbd v1.5.2PL0 Copyright (c) Steve Scherf et al.
# Submitted via: OrangeCD 6.4
#
DISCID=7e129e09
DTITLE=Various Artist - Warren Haynes Presents: The Benefit Concert, Vol. 4
DYEAR=2011
DGENRE=Other
TTITLE0=Warren Haynes w/ Don Lewis - Carolina In My Mind
TTITLE1=Sons Of Ralph - 111
TTITLE2=Sons Of Ralph w/ Warren Haynes - Nine Pound Hammer
TTITLE3=Jerry Joseph - The Kind Of Place
TTITLE4=Jerry Joseph w/ Robert Randolph, Dave Schools and Matt Abts - Climb To Sa
TTITLE4=fety
TTITLE5=Robert Randolph and The Family Band - Looking Out My Window
TTITLE6=Robert Randolph and The Family Band w/ Warren Haynes and Danny Louis - Shak
TTITLE6=e Your Hips
TTITLE7=moe. - Dark Star Jam > Mexico
TTITLE8=moe. with Warren Haynes - Opium
EXTD=
EXTT0=
EXTT1=
EXTT2=
EXTT3=
EXTT4=
EXTT5=
EXTT6=
EXTT7=
EXTT8=
PLAYORDER=
